<?xml version="1.0" encoding="UTF-8" standalone="no"?>
<!-- Created with Inkscape (http://www.inkscape.org/) -->

<svg
   width="53.005714mm"
   height="45.003822mm"
   viewBox="0 0 53.005714 45.003822"
   version="1.1"
   id="svg194"
   inkscape:version="1.2.1 (9c6d41e410, 2022-07-14)"
   sodipodi:docname="computer logo.svg"
   inkscape:export-filename="computer logo 100px.svg"
   inkscape:export-xdpi="47.919357"
   inkscape:export-ydpi="47.919357"
   xmlns:inkscape="http://www.inkscape.org/namespaces/inkscape"
   xmlns:sodipodi="http://sodipodi.sourceforge.net/DTD/sodipodi-0.dtd"
   xmlns="http://www.w3.org/2000/svg"
   xmlns:svg="http://www.w3.org/2000/svg">
  <sodipodi:namedview
     id="namedview196"
     pagecolor="#ffffff"
     bordercolor="#000000"
     borderopacity="0.25"
     inkscape:showpageshadow="2"
     inkscape:pageopacity="0.0"
     inkscape:pagecheckerboard="0"
     inkscape:deskcolor="#d1d1d1"
     inkscape:document-units="mm"
     showgrid="false"
     inkscape:zoom="1.1893044"
     inkscape:cx="355.24967"
     inkscape:cy="466.65933"
     inkscape:window-width="1440"
     inkscape:window-height="837"
     inkscape:window-x="1912"
     inkscape:window-y="166"
     inkscape:window-maximized="1"
     inkscape:current-layer="layer1" />
  <defs
     id="defs191" />
  <g
     inkscape:label="Layer 1"
     inkscape:groupmode="layer"
     id="layer1"
     transform="translate(-48.659555,-69.517538)">
    <path
       d="m 64.374136,91.503956 -2.187271,1.651037 q -0.183446,0.127007 -0.395121,0.119946 -0.211663,-0.0075 -0.366899,-0.119946 -0.155222,-0.09878 -0.232835,-0.296341 -0.07766,-0.197559 -0.02113,-0.409225 l 0.846688,-2.709393 -2.130832,-1.552257 q -0.183438,-0.127013 -0.24695,-0.317512 -0.06347,-0.190502 0.0074,-0.388062 0.07051,-0.183451 0.211673,-0.317512 0.141113,-0.13406 0.395116,-0.13406 h 2.62473 l 0.874907,-2.836397 q 0.04236,-0.211672 0.23284,-0.338673 0.190498,-0.127 0.373949,-0.127 0.183451,0 0.37395,0.127 0.190511,0.127001 0.261059,0.338673 l 0.846687,2.836397 h 2.638841 q 0.239903,0 0.381016,0.13406 0.141113,0.134061 0.225774,0.317512 0.05643,0.19756 -0.0074,0.388062 -0.06347,0.190499 -0.232837,0.317512 l -2.144942,1.552257 0.846684,2.695284 q 0.05643,0.225775 -0.0211,0.409225 -0.07766,0.183446 -0.23284,0.296344 -0.155224,0.141113 -0.359836,0.148166 -0.20462,0.0075 -0.388071,-0.148166 z"
       id="path10"
       style="fill:#ffc556;fill-opacity:1;stroke-width:0.0141115" />
    <path
       d="m 75.105919,91.503956 -2.187271,1.651037 q -0.183446,0.127007 -0.395121,0.119946 -0.211663,-0.0075 -0.366899,-0.119946 -0.155222,-0.09878 -0.232835,-0.296341 -0.07766,-0.197559 -0.02113,-0.409225 l 0.846688,-2.709393 -2.130832,-1.552257 q -0.183438,-0.127013 -0.24695,-0.317512 -0.06347,-0.190502 0.0074,-0.388062 0.07051,-0.183451 0.211673,-0.317512 0.141113,-0.13406 0.395116,-0.13406 h 2.62473 l 0.874907,-2.836397 q 0.04236,-0.211672 0.23284,-0.338673 0.190498,-0.127 0.373949,-0.127 0.183451,0 0.37395,0.127 0.190511,0.127001 0.261059,0.338673 l 0.846687,2.836397 h 2.638841 q 0.239903,0 0.381016,0.13406 0.141113,0.134061 0.225774,0.317512 0.05643,0.19756 -0.0074,0.388062 -0.06347,0.190499 -0.232837,0.317512 l -2.144942,1.552257 0.846684,2.695284 q 0.05643,0.225775 -0.0211,0.409225 -0.07766,0.183446 -0.23284,0.296344 -0.155224,0.141113 -0.359836,0.148166 -0.20462,0.0075 -0.388071,-0.148166 z"
       id="path10-5"
       style="fill:#ffc556;fill-opacity:1;stroke-width:0.0141115" />
    <path
       d="m 85.960262,91.503956 -2.187271,1.651037 q -0.183446,0.127007 -0.395121,0.119946 -0.211663,-0.0075 -0.366899,-0.119946 -0.155222,-0.09878 -0.232835,-0.296341 -0.07766,-0.197559 -0.02113,-0.409225 l 0.846688,-2.709393 -2.130832,-1.552257 q -0.183438,-0.127013 -0.24695,-0.317512 -0.06347,-0.190502 0.0074,-0.388062 0.07051,-0.183451 0.211673,-0.317512 0.141113,-0.13406 0.395116,-0.13406 h 2.62473 l 0.874907,-2.836397 q 0.04236,-0.211672 0.23284,-0.338673 0.190498,-0.127 0.373949,-0.127 0.183451,0 0.37395,0.127 0.190511,0.127001 0.261059,0.338673 l 0.846687,2.836397 h 2.638841 q 0.239903,0 0.381016,0.13406 0.141113,0.134061 0.225774,0.317512 0.05643,0.19756 -0.0074,0.388062 -0.06347,0.190499 -0.232837,0.317512 l -2.144942,1.552257 0.846684,2.695284 q 0.05643,0.225775 -0.0211,0.409225 -0.07766,0.183446 -0.23284,0.296344 -0.155224,0.141113 -0.359836,0.148166 -0.20462,0.0075 -0.388071,-0.148166 z"
       id="path10-1"
       style="fill:#ffc556;fill-opacity:1;stroke-width:0.0141115" />
    <path
       d="m 50.706244,114.52136 c -0.606953,0 -1.099807,-0.19843 -1.47856,-0.5953 -0.378753,-0.39693 -0.56813,-0.88874 -0.56813,-1.47545 0,-0.58669 0.189377,-1.07515 0.56813,-1.46536 0.378753,-0.39019 0.871607,-0.58529 1.47856,-0.58529 h 48.91239 c 0.606946,0 1.099776,0.19631 1.478506,0.58893 0.37875,0.39269 0.56813,0.87925 0.56813,1.45969 0,0.58047 -0.18938,1.07104 -0.56813,1.47172 -0.37873,0.40071 -0.87156,0.60106 -1.478506,0.60106 z"
       id="path485"
       style="fill:#252525;fill-opacity:1;stroke-width:0.0572418"
       sodipodi:nodetypes="scsssssscss" />
    <path
       d="m 57.160818,107.09637 c -1.415779,0 -2.621729,-0.49805 -3.617848,-1.49416 -0.996123,-0.99611 -1.494184,-2.20206 -1.494184,-3.61784 V 74.683941 c 0,-1.430769 0.498061,-2.649514 1.494184,-3.656236 0.996119,-1.006779 2.202069,-1.510169 3.617848,-1.510169 h 36.001754 c 1.430756,0 2.649503,0.50339 3.65624,1.510169 1.00678,1.006722 1.51017,2.225467 1.51017,3.656236 v 16.097451 h -5.16641 V 74.683941 H 57.160818 v 27.300429 h 24.74441 v 5.112 z m 0,-5.112 v -27.300429 27.300429 -0.81576 z"
       id="path618"
       style="fill:#252525;fill-opacity:1;stroke-width:0.0543835"
       sodipodi:nodetypes="sssscsscscccccccsccccc" />
    <path
       d="m 92.157767,107.08454 -2.23504,-4.79407 -4.794064,-2.23503 4.794064,-2.278181 2.23504,-4.750949 2.27818,4.750949 4.75094,2.278181 -4.75094,2.23503 z"
       style="fill:#ffc556;fill-opacity:1;stroke-width:0.0431235"
       id="path900" />
  </g>
</svg>
